<mxfile host="app.diagrams.net" modified="2024-03-11T13:40:02.804Z" agent="Mozilla/5.0 (Windows NT 10.0; Win64; x64) AppleWebKit/537.36 (KHTML, like Gecko) Chrome/122.0.0.0 Safari/537.36 Edg/122.0.0.0" etag="BKm-CMto4Lm47EWYY6bT" version="24.0.4" type="device">
  <diagram name="PÃ¡gina-1" id="KcZfvF6UOBqeBhYag53F">
    <mxGraphModel dx="1386" dy="751" grid="1" gridSize="10" guides="1" tooltips="1" connect="1" arrows="1" fold="1" page="1" pageScale="1" pageWidth="827" pageHeight="1169" math="0" shadow="0">
      <root>
        <mxCell id="0" />
        <mxCell id="1" parent="0" />
        <mxCell id="h4VDaK0nxct7w5i8huEz-7" value="Cual numero es mayor A, B o C" style="ellipse;whiteSpace=wrap;html=1;" vertex="1" parent="1">
          <mxGeometry x="354" y="40" width="120" height="80" as="geometry" />
        </mxCell>
        <mxCell id="h4VDaK0nxct7w5i8huEz-12" style="edgeStyle=orthogonalEdgeStyle;rounded=0;orthogonalLoop=1;jettySize=auto;html=1;" edge="1" parent="1" source="h4VDaK0nxct7w5i8huEz-8" target="h4VDaK0nxct7w5i8huEz-9">
          <mxGeometry relative="1" as="geometry" />
        </mxCell>
        <mxCell id="h4VDaK0nxct7w5i8huEz-8" value="leer numero A&lt;div&gt;leer numero B&lt;/div&gt;&lt;div&gt;leer numero C&lt;/div&gt;" style="shape=parallelogram;perimeter=parallelogramPerimeter;whiteSpace=wrap;html=1;fixedSize=1;" vertex="1" parent="1">
          <mxGeometry x="350" y="160" width="120" height="60" as="geometry" />
        </mxCell>
        <mxCell id="h4VDaK0nxct7w5i8huEz-15" style="edgeStyle=orthogonalEdgeStyle;rounded=0;orthogonalLoop=1;jettySize=auto;html=1;" edge="1" parent="1">
          <mxGeometry relative="1" as="geometry">
            <mxPoint x="197" y="30" as="targetPoint" />
            <mxPoint x="180" y="30" as="sourcePoint" />
          </mxGeometry>
        </mxCell>
        <mxCell id="h4VDaK0nxct7w5i8huEz-26" style="edgeStyle=orthogonalEdgeStyle;rounded=0;orthogonalLoop=1;jettySize=auto;html=1;entryX=0.5;entryY=0;entryDx=0;entryDy=0;" edge="1" parent="1" source="h4VDaK0nxct7w5i8huEz-9" target="h4VDaK0nxct7w5i8huEz-19">
          <mxGeometry relative="1" as="geometry" />
        </mxCell>
        <mxCell id="h4VDaK0nxct7w5i8huEz-28" value="" style="edgeStyle=orthogonalEdgeStyle;rounded=0;orthogonalLoop=1;jettySize=auto;html=1;" edge="1" parent="1" source="h4VDaK0nxct7w5i8huEz-9" target="h4VDaK0nxct7w5i8huEz-27">
          <mxGeometry relative="1" as="geometry" />
        </mxCell>
        <mxCell id="h4VDaK0nxct7w5i8huEz-9" value="A es mayor que B" style="rhombus;whiteSpace=wrap;html=1;" vertex="1" parent="1">
          <mxGeometry x="355" y="278" width="110" height="80" as="geometry" />
        </mxCell>
        <mxCell id="h4VDaK0nxct7w5i8huEz-16" value="si" style="text;html=1;align=center;verticalAlign=middle;resizable=0;points=[];autosize=1;strokeColor=none;fillColor=none;" vertex="1" parent="1">
          <mxGeometry x="280" y="290" width="30" height="30" as="geometry" />
        </mxCell>
        <mxCell id="h4VDaK0nxct7w5i8huEz-17" value="no" style="text;html=1;align=center;verticalAlign=middle;resizable=0;points=[];autosize=1;strokeColor=none;fillColor=none;" vertex="1" parent="1">
          <mxGeometry x="500" y="290" width="40" height="30" as="geometry" />
        </mxCell>
        <mxCell id="h4VDaK0nxct7w5i8huEz-20" style="edgeStyle=orthogonalEdgeStyle;rounded=0;orthogonalLoop=1;jettySize=auto;html=1;" edge="1" parent="1" source="h4VDaK0nxct7w5i8huEz-19">
          <mxGeometry relative="1" as="geometry">
            <mxPoint x="230" y="510" as="targetPoint" />
          </mxGeometry>
        </mxCell>
        <mxCell id="h4VDaK0nxct7w5i8huEz-19" value="B es mayor que C" style="rhombus;whiteSpace=wrap;html=1;" vertex="1" parent="1">
          <mxGeometry x="190" y="350" width="80" height="80" as="geometry" />
        </mxCell>
        <mxCell id="h4VDaK0nxct7w5i8huEz-21" value="si" style="text;html=1;align=center;verticalAlign=middle;resizable=0;points=[];autosize=1;strokeColor=none;fillColor=none;" vertex="1" parent="1">
          <mxGeometry x="200" y="450" width="30" height="30" as="geometry" />
        </mxCell>
        <mxCell id="h4VDaK0nxct7w5i8huEz-22" value="A es el numero mayor" style="ellipse;whiteSpace=wrap;html=1;" vertex="1" parent="1">
          <mxGeometry x="170" y="510" width="120" height="80" as="geometry" />
        </mxCell>
        <mxCell id="h4VDaK0nxct7w5i8huEz-25" style="edgeStyle=orthogonalEdgeStyle;rounded=0;orthogonalLoop=1;jettySize=auto;html=1;exitX=0.5;exitY=1;exitDx=0;exitDy=0;" edge="1" parent="1" source="h4VDaK0nxct7w5i8huEz-7" target="h4VDaK0nxct7w5i8huEz-8">
          <mxGeometry relative="1" as="geometry">
            <Array as="points">
              <mxPoint x="440" y="160" />
              <mxPoint x="440" y="160" />
            </Array>
          </mxGeometry>
        </mxCell>
        <mxCell id="h4VDaK0nxct7w5i8huEz-30" value="" style="edgeStyle=orthogonalEdgeStyle;rounded=0;orthogonalLoop=1;jettySize=auto;html=1;" edge="1" parent="1" source="h4VDaK0nxct7w5i8huEz-27" target="h4VDaK0nxct7w5i8huEz-29">
          <mxGeometry relative="1" as="geometry" />
        </mxCell>
        <mxCell id="h4VDaK0nxct7w5i8huEz-32" value="" style="edgeStyle=orthogonalEdgeStyle;rounded=0;orthogonalLoop=1;jettySize=auto;html=1;" edge="1" parent="1" source="h4VDaK0nxct7w5i8huEz-27" target="h4VDaK0nxct7w5i8huEz-31">
          <mxGeometry relative="1" as="geometry" />
        </mxCell>
        <mxCell id="h4VDaK0nxct7w5i8huEz-27" value="C es mayor que B" style="rhombus;whiteSpace=wrap;html=1;" vertex="1" parent="1">
          <mxGeometry x="500" y="370" width="120" height="80" as="geometry" />
        </mxCell>
        <mxCell id="h4VDaK0nxct7w5i8huEz-29" value="B es el numero mayor" style="ellipse;whiteSpace=wrap;html=1;" vertex="1" parent="1">
          <mxGeometry x="500" y="530" width="120" height="80" as="geometry" />
        </mxCell>
        <mxCell id="h4VDaK0nxct7w5i8huEz-31" value="C es el numero mayor" style="ellipse;whiteSpace=wrap;html=1;" vertex="1" parent="1">
          <mxGeometry x="680" y="370" width="120" height="80" as="geometry" />
        </mxCell>
        <mxCell id="h4VDaK0nxct7w5i8huEz-33" value="si" style="text;html=1;align=center;verticalAlign=middle;resizable=0;points=[];autosize=1;strokeColor=none;fillColor=none;" vertex="1" parent="1">
          <mxGeometry x="625" y="388" width="30" height="30" as="geometry" />
        </mxCell>
        <mxCell id="h4VDaK0nxct7w5i8huEz-34" value="no" style="text;html=1;align=center;verticalAlign=middle;resizable=0;points=[];autosize=1;strokeColor=none;fillColor=none;" vertex="1" parent="1">
          <mxGeometry x="550" y="478" width="40" height="30" as="geometry" />
        </mxCell>
      </root>
    </mxGraphModel>
  </diagram>
</mxfile>
